<svg viewBox="0 0 21 20" xmlns="http://www.w3.org/2000/svg">
  <symbol id="arrow" viewBox="0 0 21 20">
    <path d="M1.25 13.701C0.532561 14.1152 0.286748 15.0326 0.700962 15.75C1.11518 16.4674 2.03256 16.7133 2.75 16.299L1.25 13.701ZM20.7694 5.38823C20.9838 4.58803 20.5089 3.76552 19.7087 3.55111L6.66874 0.0570541C5.86854 -0.157359 5.04603 0.317515 4.83162 1.11771C4.61721 1.91791 5.09208 2.74042 5.89228 2.95483L17.4834 6.06066L14.3776 17.6518C14.1631 18.452 14.638 19.2745 15.4382 19.4889C16.2384 19.7033 17.0609 19.2284 17.2753 18.4282L20.7694 5.38823ZM2.75 16.299L20.0705 6.29904L18.5705 3.70096L1.25 13.701L2.75 16.299Z" />
  </symbol>
  <symbol id='star' viewBox="0 0 14 14">
    <path d="M7.0099 2.05941L14 0L11.9604 7.0099L14 14L7.0099 11.9604L0 14L2.05941 7.0099L0 0L7.0099 2.05941Z"/>
  </symbol>
  <symbol id='linkedin' viewBox="0 0 34 34">
    <path d="M9.31776 25H12.8131V13.6844H9.31776V25Z"/>
    <path d="M9 10.0719C9 11.1875 9.90031 12.0906 11.0654 12.0906C12.1776 12.0906 13.0779 11.1875 13.0779 10.0719C13.0779 8.95625 12.1776 8 11.0654 8C9.90031 8 9 8.95625 9 10.0719Z"/>
    <path d="M22.4517 25H26V18.7844C26 15.7562 25.3115 13.3656 21.7632 13.3656C20.0685 13.3656 18.9034 14.3219 18.4268 15.225H18.3738V13.6844H15.0374V25H18.5327V19.4219C18.5327 17.9344 18.7975 16.5 20.6511 16.5C22.4517 16.5 22.4517 18.2 22.4517 19.475V25Z"/>
  </symbol>
  <symbol id='facebook' viewBox="0 0 30 30">
    <path d="M30 15.0913C30 6.75456 23.2863 0 15 0C6.71371 0 0 6.75456 0 15.0913C0 22.6369 5.44355 28.9047 12.6411 30V19.4726H8.83064V15.0913H12.6411V11.8053C12.6411 8.03245 14.879 5.90264 18.2661 5.90264C19.9597 5.90264 21.6532 6.2069 21.6532 6.2069V9.91886H19.7782C17.9032 9.91886 17.2984 11.0751 17.2984 12.2921V15.0913H21.4718L20.8065 19.4726H17.2984V30C24.496 28.9047 30 22.6369 30 15.0913Z"/>
  </symbol>
  <symbol id='twitter' viewBox='0 0 30 30'>
    <path d="M21.9961 11.4915C22.6854 10.9745 23.3058 10.3541 23.7884 9.63028C23.168 9.90602 22.4442 10.1128 21.7204 10.1818C22.4786 9.73369 23.0301 9.04435 23.3058 8.18267C22.6165 8.59628 21.8238 8.90648 21.031 9.07881C20.3417 8.35501 19.4111 7.94141 18.3771 7.94141C16.378 7.94141 14.758 9.56135 14.758 11.5604C14.758 11.8362 14.7925 12.1119 14.8614 12.3876C11.8628 12.2153 9.1744 10.7677 7.38212 8.59628C7.07192 9.11328 6.89959 9.73369 6.89959 10.423C6.89959 11.6638 7.51999 12.7668 8.51953 13.4216C7.93359 13.3872 7.34766 13.2493 6.86512 12.9736V13.008C6.86512 14.7659 8.10593 16.2135 9.76034 16.5581C9.48461 16.6271 9.13994 16.696 8.82973 16.696C8.58847 16.696 8.38166 16.6615 8.1404 16.6271C8.58847 18.0747 9.93267 19.1087 11.5182 19.1432C10.2773 20.1082 8.72633 20.6942 7.03745 20.6942C6.72725 20.6942 6.45152 20.6597 6.17578 20.6252C7.76126 21.6592 9.65694 22.2452 11.725 22.2452C18.3771 22.2452 21.9961 16.7649 21.9961 11.974C21.9961 11.8017 21.9961 11.6638 21.9961 11.4915Z"/>
  </symbol>
</svg>
